<?xml version="1.0" encoding="UTF-8" standalone="no"?>
<!-- Created with Inkscape (http://www.inkscape.org/) -->

<svg
   width="14.999989mm"
   height="14.999989mm"
   viewBox="0 0 14.999989 14.999989"
   version="1.1"
   id="svg1"
   xml:space="preserve"
   inkscape:version="1.4 (86a8ad7, 2024-10-11)"
   sodipodi:docname="Flyer.svg"
   inkscape:export-filename="..\png\flyer-w-qr.png"
   inkscape:export-xdpi="96"
   inkscape:export-ydpi="96"
   xmlns:inkscape="http://www.inkscape.org/namespaces/inkscape"
   xmlns:sodipodi="http://sodipodi.sourceforge.net/DTD/sodipodi-0.dtd"
   xmlns="http://www.w3.org/2000/svg"
   xmlns:svg="http://www.w3.org/2000/svg"><sodipodi:namedview
     id="namedview1"
     pagecolor="#ffffff"
     bordercolor="#000000"
     borderopacity="0.25"
     inkscape:showpageshadow="2"
     inkscape:pageopacity="0.0"
     inkscape:pagecheckerboard="0"
     inkscape:deskcolor="#d1d1d1"
     inkscape:document-units="mm"
     showguides="false"
     inkscape:zoom="0.25000001"
     inkscape:cx="1194"
     inkscape:cy="353.99999"
     inkscape:window-width="1366"
     inkscape:window-height="697"
     inkscape:window-x="-8"
     inkscape:window-y="-8"
     inkscape:window-maximized="1"
     inkscape:current-layer="layer1"
     inkscape:export-bgcolor="#ffffffff"><sodipodi:guide
       position="-571.11471,305.51817"
       orientation="0,-1"
       id="guide8"
       inkscape:locked="false" /><sodipodi:guide
       position="-708.07911,214.05138"
       orientation="0,-1"
       id="guide15"
       inkscape:locked="false" /><sodipodi:guide
       position="-543.81331,185.21801"
       orientation="0,-1"
       id="guide17694"
       inkscape:locked="false" /><sodipodi:guide
       position="-675.05241,289.99487"
       orientation="0,-1"
       id="guide19"
       inkscape:locked="false" /><sodipodi:guide
       position="-715.74361,-157.06786"
       orientation="1,0"
       id="guide20"
       inkscape:locked="false" /><sodipodi:guide
       position="-572.83331,163.85687"
       orientation="0,-1"
       id="guide9"
       inkscape:locked="false" /><sodipodi:guide
       position="-560.36101,123.40166"
       orientation="0,-1"
       id="guide10"
       inkscape:locked="false" /><sodipodi:guide
       position="-483.42931,609.64219"
       orientation="1,0"
       id="guide195"
       inkscape:locked="false" /><sodipodi:guide
       position="-437.02161,638.33836"
       orientation="0,-1"
       id="guide196"
       inkscape:locked="false" /><sodipodi:guide
       position="-437.65641,531.7113"
       orientation="0,-1"
       id="guide197"
       inkscape:locked="false" /><sodipodi:guide
       position="-334.93381,531.4312"
       orientation="1,0"
       id="guide198"
       inkscape:locked="false" /><sodipodi:guide
       position="-877.65251,366.87084"
       orientation="0,-1"
       id="guide2"
       inkscape:locked="false" /><sodipodi:guide
       position="-921.83451,336.11855"
       orientation="1,0"
       id="guide3"
       inkscape:locked="false" /><sodipodi:guide
       position="-570.14711,241.19376"
       orientation="1,0"
       id="guide4"
       inkscape:locked="false" /><sodipodi:guide
       position="-642.85631,163.85687"
       orientation="0,-1"
       id="guide5"
       inkscape:locked="false" /><sodipodi:guide
       position="264.20369,374.99135"
       orientation="0,-1"
       id="guide246"
       inkscape:locked="false" /><sodipodi:guide
       position="199.60399,325.42935"
       orientation="0,-1"
       id="guide247"
       inkscape:locked="false" /><sodipodi:guide
       position="-87.584109,3.2690295"
       orientation="0,-1"
       id="guide12"
       inkscape:locked="false" /><sodipodi:guide
       position="-88.266209,-0.97532047"
       orientation="0,-1"
       id="guide13"
       inkscape:locked="false" /><inkscape:page
       x="0"
       y="0"
       width="14.999989"
       height="14.999989"
       id="page1"
       margin="0"
       bleed="0" /></sodipodi:namedview><defs
     id="defs1" /><g
     inkscape:label="Capa 1"
     inkscape:groupmode="layer"
     id="layer1"
     transform="translate(-779.43603,-364.68134)"><path
       d="m 781.57945,364.68132 c -1.17181,0 -2.14353,0.97172 -2.14353,2.14353 v 10.71297 c 0,1.17181 0.97172,2.1435 2.14353,2.1435 h 10.71297 c 1.17181,0 2.1435,-0.97169 2.1435,-2.1435 v -10.71297 c 0,-1.17181 -0.97169,-2.14353 -2.1435,-2.14353 z m 5.59616,2.81352 h 1.61163 c 0,0.1281 -1.1e-4,0.27469 0.0364,0.40291 0.055,0.31134 0.16499,0.58592 0.32985,0.84233 0.1831,0.25639 0.40333,0.47549 0.65971,0.6403 0.36629,0.2381 0.78745,0.36638 1.22698,0.36638 v 1.59338 c -0.80582,0 -1.59375,-0.2555 -2.25307,-0.71337 v 3.25978 c 0,0.62268 -0.18288,1.20845 -0.53073,1.70293 -0.34798,0.49449 -0.84302,0.87938 -1.41074,1.09914 -0.56775,0.20144 -1.18994,0.23784 -1.776,0.0912 -0.58606,-0.14644 -1.11745,-0.4758 -1.50205,-0.93366 -0.40291,-0.45786 -0.65956,-1.0255 -0.71451,-1.62989 -0.0733,-0.60437 0.0369,-1.20949 0.32987,-1.74059 0.29302,-0.53113 0.73348,-0.97053 1.2829,-1.24524 0.53113,-0.27472 1.1534,-0.3666 1.73946,-0.29334 v 1.64815 c -0.27472,-0.0733 -0.56761,-0.0722 -0.84233,0.0199 -0.25641,0.0917 -0.49484,0.25615 -0.67798,0.49422 -0.16477,0.2381 -0.25685,0.5128 -0.23854,0.80582 0,0.29303 0.0919,0.56773 0.2568,0.80581 0.16477,0.21976 0.40327,0.40269 0.67799,0.47595 0.27471,0.0917 0.58592,0.0917 0.84233,0 0.27472,-0.0917 0.5131,-0.25612 0.69625,-0.49422 0.16477,-0.21977 0.25565,-0.51277 0.25565,-0.8058 z"
       style="font-weight:900;font-size:7.7611px;line-height:1.25;font-family:'Font Awesome 7 Free';-inkscape-font-specification:'Font Awesome 7 Free Heavy';text-align:center;letter-spacing:0px;text-anchor:middle;fill:#b40f30;fill-opacity:1;stroke-width:0.265;stroke-linecap:round;stroke-linejoin:round;stroke-miterlimit:10;paint-order:stroke fill markers"
       id="path146" /></g></svg>
