<?xml version="1.0" encoding="UTF-8" standalone="no"?>
<!-- Created with Inkscape (http://www.inkscape.org/) -->

<svg
   width="15.000053mm"
   height="15.000118mm"
   viewBox="0 0 15.000053 15.000118"
   version="1.1"
   id="svg1"
   xml:space="preserve"
   xmlns="http://www.w3.org/2000/svg"
   xmlns:svg="http://www.w3.org/2000/svg"><defs
     id="defs1" /><g
     id="layer1"
     transform="translate(-1262.9861,-369.68131)"><path
       d="m 1272.2129,376.53206 c -0.5088,0 -0.9302,0.47366 -0.9302,1.03507 0,0.57896 0.4214,1.05265 0.9302,1.05265 0.5263,0 0.9296,-0.47369 0.9296,-1.05265 0,-0.56141 -0.4033,-1.03507 -0.9296,-1.03507 z"
       style="font-weight:900;font-size:17.1429px;line-height:1.25;font-family:'Font Awesome 7 Free';-inkscape-font-specification:'Font Awesome 7 Free Heavy';text-align:center;letter-spacing:1.16883px;text-anchor:middle;fill:#dfe0db;fill-opacity:1;stroke-width:0.265001;stroke-linecap:round;stroke-linejoin:round;stroke-miterlimit:10;paint-order:stroke fill markers"
       id="path17" /><path
       d="m 1268.7914,376.53206 c -0.5263,0 -0.9297,0.47366 -0.9297,1.03507 0,0.57896 0.4209,1.05265 0.9297,1.05265 0.5088,0 0.9126,-0.47369 0.9126,-1.05265 0.018,-0.56141 -0.4038,-1.03507 -0.9126,-1.03507 z"
       style="font-weight:900;font-size:17.1429px;line-height:1.25;font-family:'Font Awesome 7 Free';-inkscape-font-specification:'Font Awesome 7 Free Heavy';text-align:center;letter-spacing:1.16883px;text-anchor:middle;fill:#dfe0db;fill-opacity:1;stroke-width:0.265001;stroke-linecap:round;stroke-linejoin:round;stroke-miterlimit:10;paint-order:stroke fill markers"
       id="path14" /><path
       d="m 1265.1286,369.68131 c -1.1719,0 -2.1425,0.97114 -2.1425,2.14302 v 10.71408 c 0,1.17188 0.9706,2.14302 2.1425,2.14302 h 10.7146 c 1.1719,0 2.143,-0.97114 2.143,-2.14302 v -10.71408 c 0,-1.17188 -0.9711,-2.14302 -2.143,-2.14302 z m 3.8912,3.57033 h 0.018 l 0.018,0.0176 c 0.088,0.17544 0.1753,0.35065 0.2631,0.54363 0.7719,-0.12281 1.5788,-0.12281 2.3507,0 0.088,-0.19298 0.1759,-0.36819 0.2636,-0.54363 l 0.017,-0.0176 h 0.018 c 0.7193,0.1228 1.4386,0.3508 2.1053,0.64905 0,0 0,0.0176 0.018,0.0176 h -0.018 c 1.1755,1.70179 1.7371,3.63148 1.5265,5.85959 v 0.0176 l -0.017,0.0176 c -0.772,0.57896 -1.6494,1.01741 -2.5792,1.29811 h -0.017 c 0,0 0,-0.0176 -0.017,-0.0176 -0.193,-0.26316 -0.3687,-0.56112 -0.5266,-0.85937 v -0.0176 c 0,-0.0175 0,-0.0176 0.017,-0.0176 0.2808,-0.10527 0.5616,-0.24567 0.8072,-0.38603 0,0 0.018,-2e-5 0.018,-0.0176 v -0.0176 -0.0176 h -0.018 c -0.053,-0.0526 -0.1055,-0.0879 -0.1581,-0.12299 0,-0.0175 0,-0.0176 -0.018,-0.0176 h -0.017 c -1.6667,0.77195 -3.4912,0.77195 -5.1754,0 h -0.018 c 0,0 -0.018,3e-5 -0.018,0.0176 -0.053,0.0351 -0.105,0.0704 -0.1576,0.12299 h -0.018 v 0.0176 0.0176 c 0.018,0 0.018,0.0176 0.018,0.0176 0.2632,0.14036 0.526,0.28076 0.8067,0.38603 h 0.018 v 0.0176 0.0176 c -0.1579,0.29825 -0.3331,0.59621 -0.5261,0.85937 l -0.018,0.0176 h -0.018 c -0.9298,-0.2807 -1.7896,-0.71915 -2.5791,-1.29811 v -0.0176 c -0.018,0 -0.018,-2e-5 -0.018,-0.0176 -0.1754,-1.91231 0.1932,-3.85955 1.5265,-5.85959 l 0.018,-0.0176 c 0.6667,-0.29825 1.386,-0.52625 2.1053,-0.64905 z"
       style="font-weight:900;font-size:17.1429px;line-height:1.25;font-family:'Font Awesome 7 Free';-inkscape-font-specification:'Font Awesome 7 Free Heavy';text-align:center;letter-spacing:1.16883px;text-anchor:middle;fill:#dfe0db;fill-opacity:1;stroke-width:0.265001;stroke-linecap:round;stroke-linejoin:round;stroke-miterlimit:10;paint-order:stroke fill markers"
       id="path13" /></g></svg>
