<?xml version="1.0" encoding="UTF-8" standalone="no" ?>
<!-- Created with Inkscape (http://www.inkscape.org/) -->
<svg
  width="14.999989mm"
  height="14.999989mm"
  viewBox="0 0 14.999989 14.999989"
  version="1.1"
  id="svg1"
  xml:space="preserve"
  inkscape:version="1.4 (86a8ad7, 2024-10-11)"
  sodipodi:docname="Flyer.svg"
  inkscape:export-filename="..\png\flyer-w-qr.png"
  inkscape:export-xdpi="96"
  inkscape:export-ydpi="96"
  xmlns:inkscape="http://www.inkscape.org/namespaces/inkscape"
  xmlns:sodipodi="http://sodipodi.sourceforge.net/DTD/sodipodi-0.dtd"
  xmlns="http://www.w3.org/2000/svg"
  xmlns:svg="http://www.w3.org/2000/svg"
><sodipodi:namedview
    id="namedview1"
    pagecolor="#ffffff"
    bordercolor="#000000"
    borderopacity="0.25"
    inkscape:showpageshadow="2"
    inkscape:pageopacity="0.0"
    inkscape:pagecheckerboard="0"
    inkscape:deskcolor="#d1d1d1"
    inkscape:document-units="mm"
    showguides="false"
    inkscape:zoom="0.25000001"
    inkscape:cx="1194"
    inkscape:cy="353.99999"
    inkscape:window-width="1366"
    inkscape:window-height="697"
    inkscape:window-x="-8"
    inkscape:window-y="-8"
    inkscape:window-maximized="1"
    inkscape:current-layer="layer1"
    inkscape:export-bgcolor="#ffffffff"
  ><sodipodi:guide
      position="-587.28354,305.51817"
      orientation="0,-1"
      id="guide8"
      inkscape:locked="false"
    /><sodipodi:guide
      position="-724.24794,214.05138"
      orientation="0,-1"
      id="guide15"
      inkscape:locked="false"
    /><sodipodi:guide
      position="-559.98214,185.21801"
      orientation="0,-1"
      id="guide17694"
      inkscape:locked="false"
    /><sodipodi:guide
      position="-691.22124,289.99487"
      orientation="0,-1"
      id="guide19"
      inkscape:locked="false"
    /><sodipodi:guide
      position="-731.91244,-157.06786"
      orientation="1,0"
      id="guide20"
      inkscape:locked="false"
    /><sodipodi:guide
      position="-589.00214,163.85687"
      orientation="0,-1"
      id="guide9"
      inkscape:locked="false"
    /><sodipodi:guide
      position="-576.52984,123.40166"
      orientation="0,-1"
      id="guide10"
      inkscape:locked="false"
    /><sodipodi:guide
      position="-499.59814,609.64219"
      orientation="1,0"
      id="guide195"
      inkscape:locked="false"
    /><sodipodi:guide
      position="-453.19044,638.33836"
      orientation="0,-1"
      id="guide196"
      inkscape:locked="false"
    /><sodipodi:guide
      position="-453.82524,531.7113"
      orientation="0,-1"
      id="guide197"
      inkscape:locked="false"
    /><sodipodi:guide
      position="-351.10264,531.4312"
      orientation="1,0"
      id="guide198"
      inkscape:locked="false"
    /><sodipodi:guide
      position="-893.82133,366.87084"
      orientation="0,-1"
      id="guide2"
      inkscape:locked="false"
    /><sodipodi:guide
      position="-938.00333,336.11855"
      orientation="1,0"
      id="guide3"
      inkscape:locked="false"
    /><sodipodi:guide
      position="-586.31594,241.19376"
      orientation="1,0"
      id="guide4"
      inkscape:locked="false"
    /><sodipodi:guide
      position="-659.02514,163.85687"
      orientation="0,-1"
      id="guide5"
      inkscape:locked="false"
    /><sodipodi:guide
      position="248.03486,374.99135"
      orientation="0,-1"
      id="guide246"
      inkscape:locked="false"
    /><sodipodi:guide
      position="183.43516,325.42935"
      orientation="0,-1"
      id="guide247"
      inkscape:locked="false"
    /><sodipodi:guide
      position="-103.75294,3.2690295"
      orientation="0,-1"
      id="guide12"
      inkscape:locked="false"
    /><sodipodi:guide
      position="-104.43504,-0.97532047"
      orientation="0,-1"
      id="guide13"
      inkscape:locked="false"
    /><inkscape:page
      x="0"
      y="0"
      width="14.999989"
      height="14.999989"
      id="page1"
      margin="0"
      bleed="0"
    /></sodipodi:namedview><defs id="defs1" /><g
    inkscape:label="Capa 1"
    inkscape:groupmode="layer"
    id="layer1"
    transform="translate(-795.60485,-364.68134)"
  ><path
      d="m 797.74825,364.68132 c -1.1718,0 -2.1435,0.97172 -2.1435,2.14353 v 10.71297 c 0,1.17181 0.9717,2.1435 2.1435,2.1435 h 10.71298 c 1.17181,0 2.14352,-0.97169 2.14352,-2.1435 v -10.71297 c 0,-1.17181 -0.97171,-2.14353 -2.14352,-2.14353 z m 5.34736,2.81352 c 0.0733,0 0.21977,0.036 0.42118,0.2191 0.21976,0.20143 0.44004,0.51242 0.64145,0.97017 0.38451,0.78731 0.64017,1.88592 0.6951,3.05775 h -3.49719 c 0.055,-1.17183 0.3118,-2.27044 0.67798,-3.05775 0.21977,-0.45775 0.43887,-0.76878 0.65859,-0.97017 0.20143,-0.1831 0.32965,-0.2191 0.40289,-0.2191 z m -1.5557,0.27392 c -0.5859,0.9521 -1.0077,2.39852 -1.06261,3.97314 h -2.03167 c 0.16477,-1.84928 1.40979,-3.38724 3.09428,-3.97314 z m 3.13081,0 c 1.68449,0.5859 2.92949,2.12386 3.09428,3.97314 h -2.0328 c -0.0733,-1.57462 -0.47557,-3.02104 -1.06148,-3.97314 z m -6.22509,4.85201 h 2.03167 c 0.055,1.57463 0.47671,3.02104 1.06261,3.97312 -1.68449,-0.5859 -2.92949,-2.12386 -3.09428,-3.97312 z m 2.91052,0 h 3.49719 c -0.055,1.19011 -0.31065,2.27043 -0.67684,3.05775 -0.21976,0.45773 -0.43999,0.76991 -0.65971,0.9713 -0.20144,0.1831 -0.32967,0.2191 -0.40291,0.2191 -0.0733,0 -0.21977,-0.036 -0.42116,-0.2191 -0.21977,-0.20144 -0.43891,-0.51357 -0.64032,-0.9713 -0.38449,-0.78732 -0.64132,-1.86764 -0.69625,-3.05775 z m 4.37605,0 h 2.0328 c -0.16476,1.84926 -1.40979,3.38722 -3.09428,3.97312 0.58591,-0.95208 0.98824,-2.39849 1.06148,-3.97312 z"
      style="font-weight:900;font-size:7.7611px;line-height:1.25;font-family:'Font Awesome 7 Free';-inkscape-font-specification:'Font Awesome 7 Free Heavy';text-align:center;letter-spacing:0px;text-anchor:middle;fill:#dfe0db;fill-opacity:1;stroke-width:0.265;stroke-linecap:round;stroke-linejoin:round;stroke-miterlimit:10;paint-order:stroke fill markers"
      id="path144"
    /></g></svg>
