<?xml version="1.0" encoding="UTF-8" standalone="no" ?>
<!-- Created with Inkscape (http://www.inkscape.org/) -->
<svg
  width="15.000021mm"
  height="15.000022mm"
  viewBox="0 0 15.000021 15.000022"
  version="1.1"
  id="svg1"
  xml:space="preserve"
  inkscape:version="1.4 (86a8ad7, 2024-10-11)"
  sodipodi:docname="Flyer.svg"
  inkscape:export-filename="..\png\flyer-w-qr.png"
  inkscape:export-xdpi="96"
  inkscape:export-ydpi="96"
  xmlns:inkscape="http://www.inkscape.org/namespaces/inkscape"
  xmlns:sodipodi="http://sodipodi.sourceforge.net/DTD/sodipodi-0.dtd"
  xmlns="http://www.w3.org/2000/svg"
  xmlns:svg="http://www.w3.org/2000/svg"
><sodipodi:namedview
    id="namedview1"
    pagecolor="#ffffff"
    bordercolor="#000000"
    borderopacity="0.25"
    inkscape:showpageshadow="2"
    inkscape:pageopacity="0.0"
    inkscape:pagecheckerboard="0"
    inkscape:deskcolor="#d1d1d1"
    inkscape:document-units="mm"
    showguides="false"
    inkscape:zoom="0.25000001"
    inkscape:cx="1194"
    inkscape:cy="353.99999"
    inkscape:window-width="1366"
    inkscape:window-height="697"
    inkscape:window-x="-8"
    inkscape:window-y="-8"
    inkscape:window-maximized="1"
    inkscape:current-layer="layer1"
    inkscape:export-bgcolor="#ffffffff"
  ><sodipodi:guide
      position="-538.7769,305.51817"
      orientation="0,-1"
      id="guide8"
      inkscape:locked="false"
    /><sodipodi:guide
      position="-675.7413,214.05139"
      orientation="0,-1"
      id="guide15"
      inkscape:locked="false"
    /><sodipodi:guide
      position="-511.4755,185.21802"
      orientation="0,-1"
      id="guide17694"
      inkscape:locked="false"
    /><sodipodi:guide
      position="-642.7146,289.99487"
      orientation="0,-1"
      id="guide19"
      inkscape:locked="false"
    /><sodipodi:guide
      position="-683.4058,-157.06785"
      orientation="1,0"
      id="guide20"
      inkscape:locked="false"
    /><sodipodi:guide
      position="-540.4955,163.85688"
      orientation="0,-1"
      id="guide9"
      inkscape:locked="false"
    /><sodipodi:guide
      position="-528.0232,123.40167"
      orientation="0,-1"
      id="guide10"
      inkscape:locked="false"
    /><sodipodi:guide
      position="-451.0915,609.64219"
      orientation="1,0"
      id="guide195"
      inkscape:locked="false"
    /><sodipodi:guide
      position="-404.6838,638.33836"
      orientation="0,-1"
      id="guide196"
      inkscape:locked="false"
    /><sodipodi:guide
      position="-405.3186,531.7113"
      orientation="0,-1"
      id="guide197"
      inkscape:locked="false"
    /><sodipodi:guide
      position="-302.596,531.4312"
      orientation="1,0"
      id="guide198"
      inkscape:locked="false"
    /><sodipodi:guide
      position="-845.31469,366.87084"
      orientation="0,-1"
      id="guide2"
      inkscape:locked="false"
    /><sodipodi:guide
      position="-889.49669,336.11855"
      orientation="1,0"
      id="guide3"
      inkscape:locked="false"
    /><sodipodi:guide
      position="-537.8093,241.19377"
      orientation="1,0"
      id="guide4"
      inkscape:locked="false"
    /><sodipodi:guide
      position="-610.5185,163.85688"
      orientation="0,-1"
      id="guide5"
      inkscape:locked="false"
    /><sodipodi:guide
      position="296.54148,374.99135"
      orientation="0,-1"
      id="guide246"
      inkscape:locked="false"
    /><sodipodi:guide
      position="231.94178,325.42935"
      orientation="0,-1"
      id="guide247"
      inkscape:locked="false"
    /><sodipodi:guide
      position="-55.246313,3.2690305"
      orientation="0,-1"
      id="guide12"
      inkscape:locked="false"
    /><sodipodi:guide
      position="-55.928413,-0.97531939"
      orientation="0,-1"
      id="guide13"
      inkscape:locked="false"
    /><inkscape:page
      x="-1.7928863e-21"
      y="0"
      width="15.000021"
      height="15.000022"
      id="page1"
      margin="0"
      bleed="0"
    /></sodipodi:namedview><defs id="defs1" /><g
    inkscape:label="Capa 1"
    inkscape:groupmode="layer"
    id="layer1"
    transform="translate(-747.09823,-364.68131)"
  ><path
      style="font-weight:900;font-size:17.1429px;line-height:1.25;font-family:'Font Awesome 7 Free';-inkscape-font-specification:'Font Awesome 7 Free Heavy';text-align:center;letter-spacing:1.16883px;text-anchor:middle;fill:#dfe0db;fill-opacity:1;stroke-width:0.265001;stroke-linecap:round;stroke-linejoin:round;stroke-miterlimit:10;paint-order:stroke fill markers"
      d="m 753.59377,370.7081 c -0.53572,0.33482 -0.87054,0.9375 -0.80357,1.60715 0.0335,0.63616 0.40178,1.20536 1.00446,1.5067 0.5692,0.26786 1.27233,0.23437 1.80804,-0.16741 0.53572,-0.33483 0.87054,-0.93751 0.80358,-1.60715 -0.0335,-0.63616 -0.40179,-1.20536 -1.00447,-1.5067 -0.5692,-0.26786 -1.27233,-0.23438 -1.80804,0.16741 z m 4.78796,-2.31027 c -0.16741,-0.16741 -0.40179,-0.30134 -0.63616,-0.40179 -0.60268,-0.23438 -1.90849,-0.20089 -2.77903,-0.20089 -0.13393,0 -0.26786,0 -0.3683,0 -0.10045,0 -0.23438,0 -0.36831,0 -0.87054,0 -2.17634,-0.0335 -2.77902,0.20089 -0.23438,0.10045 -0.43527,0.23438 -0.63617,0.40179 -0.16741,0.20089 -0.30134,0.40178 -0.40178,0.63616 -0.23438,0.60268 -0.2009,1.90849 -0.2009,2.77902 0,0.13393 0,0.26786 0,0.36831 0,0.10044 0,0.23437 0,0.3683 0,0.87054 -0.0335,2.17635 0.2009,2.77903 0.10044,0.23437 0.23437,0.43527 0.40178,0.63616 0.2009,0.16741 0.40179,0.30134 0.63617,0.40179 0.60268,0.23437 1.90848,0.23437 2.77902,0.20089 0.13393,0 0.26786,0 0.36831,0 0.10044,0 0.23437,0 0.3683,0 0.87054,0.0335 2.17635,0.0335 2.77903,-0.20089 0.23437,-0.10045 0.43526,-0.23438 0.63616,-0.40179 0.16741,-0.16741 0.30134,-0.40179 0.40178,-0.63616 0.23438,-0.60268 0.23438,-1.90849 0.2009,-2.77903 0,-0.13393 0,-0.26786 0,-0.3683 0,-0.10045 0,-0.23438 0,-0.36831 0.0335,-0.87053 0.0335,-2.17634 -0.2009,-2.77902 -0.10044,-0.23438 -0.23437,-0.46875 -0.40178,-0.63616 z m -2.24331,1.5067 c 0.60268,0.40178 1.00447,1.03795 1.17188,1.74107 0.13393,0.70313 -0.0335,1.47322 -0.43527,2.0759 -0.2009,0.30134 -0.43527,0.53572 -0.73661,0.73661 -0.30134,0.20089 -0.63616,0.33482 -1.00447,0.40179 -0.70313,0.16741 -1.43973,0 -2.0759,-0.40179 -0.60268,-0.40179 -1.00446,-1.03795 -1.13839,-1.74108 -0.16741,-0.70312 0,-1.47321 0.40178,-2.07589 0.40179,-0.60268 1.03795,-1.00447 1.74108,-1.17188 0.70313,-0.13393 1.43974,0.0335 2.0759,0.43527 z m 5.95983,-3.08038 c 0,-1.17188 -0.97098,-2.14286 -2.14286,-2.14286 h -10.71431 c -1.17188,0 -2.14286,0.97098 -2.14286,2.14286 v 10.71431 c 0,1.17188 0.97098,2.14287 2.14286,2.14287 h 10.71431 c 1.17188,0 2.14286,-0.97099 2.14286,-2.14287 z m -3.04688,9.81029 c -0.63616,0.63617 -1.37277,0.83706 -2.24331,0.87054 -0.87054,0.0335 -3.54911,0.0335 -4.41965,0 -0.87054,-0.0335 -1.60715,-0.23437 -2.24331,-0.87054 -0.63616,-0.63616 -0.83706,-1.37277 -0.87054,-2.2433 -0.0335,-0.87054 -0.0335,-3.54912 0,-4.41966 0.067,-0.87054 0.23438,-1.60715 0.87054,-2.24331 0.63616,-0.63616 1.40625,-0.83705 2.24331,-0.87054 0.87054,-0.0335 3.54911,-0.0335 4.41965,0 0.87054,0.067 1.60715,0.23438 2.24331,0.87054 0.63616,0.63616 0.83706,1.37277 0.87054,2.24331 0.0335,0.87054 0.0335,3.51564 0,4.41966 -0.0335,0.87053 -0.23438,1.60714 -0.87054,2.2433 z m -1.94197,-6.76341 c -0.10044,-0.10044 -0.20089,-0.20089 -0.23437,-0.30134 -0.067,-0.13392 -0.067,-0.23437 -0.0335,-0.3683 0,-0.13393 0.067,-0.23438 0.16741,-0.33482 0.067,-0.10045 0.20089,-0.13393 0.33482,-0.16741 0.10045,-0.0335 0.23437,-0.0335 0.3683,0.0335 0.10045,0.0335 0.2009,0.13393 0.26786,0.23437 0.067,0.10045 0.13393,0.23438 0.13393,0.36831 0,0.067 -0.0335,0.16741 -0.067,0.23437 -0.0335,0.067 -0.067,0.13393 -0.13393,0.2009 -0.067,0.067 -0.13393,0.10044 -0.2009,0.13393 -0.067,0.0335 -0.16741,0.067 -0.23437,0.067 -0.13393,0 -0.26786,-0.0335 -0.36831,-0.10045 z"
      id="path138"
    /></g></svg>
