<?xml version="1.0" encoding="UTF-8" standalone="no"?>
<svg
   viewBox="0 0 640 640"
   version="1.1"
   id="svg1"
   sodipodi:docname="whatsapp.svg"
   inkscape:version="1.4.3 (0d15f75042, 2025-12-25)"
   xmlns:inkscape="http://www.inkscape.org/namespaces/inkscape"
   xmlns:sodipodi="http://sodipodi.sourceforge.net/DTD/sodipodi-0.dtd"
   xmlns="http://www.w3.org/2000/svg"
   xmlns:svg="http://www.w3.org/2000/svg">
  <defs
     id="defs1" />
  <sodipodi:namedview
     id="namedview1"
     pagecolor="#ffffff"
     bordercolor="#000000"
     borderopacity="0.25"
     inkscape:showpageshadow="2"
     inkscape:pageopacity="0.0"
     inkscape:pagecheckerboard="0"
     inkscape:deskcolor="#d1d1d1"
     inkscape:zoom="0.2609375"
     inkscape:cx="277.84431"
     inkscape:cy="318.08383"
     inkscape:window-width="756"
     inkscape:window-height="710"
     inkscape:window-x="0"
     inkscape:window-y="0"
     inkscape:window-maximized="0"
     inkscape:current-layer="svg1" />
  <!--!Font Awesome Free 7.1.0 by @fontawesome - https://fontawesome.com License - https://fontawesome.com/license/free Copyright 2026 Fonticons, Inc.-->
  <path
     d="m 131.57143,318 c 0,35.57143 10,70.28571 28.85714,100.14286 l 4.42857,7.14285 -19,69.42858 L 217.14286,476 224,480.14286 c 28.85714,17.14285 62,26.28571 95.85714,26.28571 H 320 C 423.71429,506.42857 510.42857,422 510.42857,318.14286 510.42857,267.85714 488.71429,220.57143 453.14286,185 417.42857,149.28571 370.28571,129.71429 320,129.71429 216.14286,129.71429 131.71429,214.14286 131.57143,318 Z m 261,107.71429 c -18,2.71428 -32,1.28571 -67.85714,-14.14286 C 272.14286,388.85714 236.42857,338 229.14286,327.71429 c -0.57143,-0.85715 -1,-1.28572 -1.14286,-1.57143 -2.85714,-3.71429 -23.14286,-30.71429 -23.14286,-58.57143 0,-26.28572 12.85715,-39.85714 18.85715,-46.14286 0.42857,-0.42857 0.71428,-0.71428 1,-1.14286 5.14285,-5.71428 11.28571,-7.14285 15.14285,-7.14285 3.71429,0 7.57143,0 10.85715,0.14285 h 1.14285 c 3.28572,0 7.42857,0 11.57143,9.71429 1.71429,4.14286 4.28572,10.42857 7,16.85714 4.71429,11.42857 9.57143,23.28572 10.42857,25.14286 1.42857,2.85714 2.42857,6.14286 0.42857,9.85714 -4.85714,9.71429 -9.85714,14.85715 -13.28571,18.57143 -4.42857,4.57143 -6.42857,6.71429 -3.28571,12.28572 21.85714,37.57142 43.71428,50.57142 77,67.28571 5.71428,2.85714 9,2.42857 12.28571,-1.42857 3.28571,-3.71429 14.14286,-16.57143 17.85714,-22.14286 3.71429,-5.71428 7.57143,-4.71428 12.71429,-2.85714 5.14286,1.85714 33,15.57143 38.71428,18.42857 1.14286,0.57143 2.14286,1 3,1.42857 4,2 6.71429,3.28572 7.85715,5.14286 1.28571,2.71428 1.28571,14.14286 -3.42857,27.28571 C 426,412.14286 403.42857,424.14286 392.57143,425.71429 Z M 640,91.42857 C 640,41 599,0 548.57143,0 H 91.42857 C 41,0 0,41 0,91.42857 V 548.57143 C 0,599 41,640 91.42857,640 H 548.57143 C 599,640 640,599 640,548.57143 Z M 211.57143,517 91.42857,548.57143 123.57143,431.14286 C 103.71429,396.85714 93.28571,357.85714 93.28571,317.85714 93.42857,193 195,91.42857 319.85714,91.42857 c 60.57143,0 117.42857,23.57143 160.28572,66.42857 42.71428,42.85715 68.42857,99.71429 68.42857,160.28572 0,124.85714 -103.85714,226.42857 -228.71429,226.42857 -38,0 -75.28571,-9.57143 -108.28571,-27.57143 z"
     id="path1"
     style="stroke-width:1.42857;fill:#dfe0db;fill-opacity:1" />
</svg>
